<svg id="visual" viewBox="0 0 450 900" width="450" height="900" xmlns="http://www.w3.org/2000/svg" xmlns:xlink="http://www.w3.org/1999/xlink" version="1.1"><g stroke-width="1" stroke-linejoin="bevel"><path d="M240 452L238 479L275 480Z" fill="#2f4858" stroke="#2f4858"></path><path d="M259 542L306 485L275 480Z" fill="#5e6278" stroke="#5e6278"></path><path d="M275 480L299 401L240 452Z" fill="#2f4858" stroke="#2f4858"></path><path d="M238 479L236 523L275 480Z" fill="#bc9da7" stroke="#bc9da7"></path><path d="M240 452L192 478L238 479Z" fill="#5e6278" stroke="#5e6278"></path><path d="M238 479L192 478L236 523Z" fill="#e2c0bb" stroke="#e2c0bb"></path><path d="M215 408L198 427L240 452Z" fill="#8f7e92" stroke="#8f7e92"></path><path d="M240 452L198 427L192 478Z" fill="#767086" stroke="#767086"></path><path d="M299 401L215 408L240 452Z" fill="#ffe7d4" stroke="#ffe7d4"></path><path d="M236 523L259 542L275 480Z" fill="#bc9da7" stroke="#bc9da7"></path><path d="M306 485L299 401L275 480Z" fill="#5e6278" stroke="#5e6278"></path><path d="M336 517L335 487L306 485Z" fill="#5e6278" stroke="#5e6278"></path><path d="M306 485L341 411L299 401Z" fill="#767086" stroke="#767086"></path><path d="M176 419L168 493L192 478Z" fill="#2f4858" stroke="#2f4858"></path><path d="M192 478L168 493L236 523Z" fill="#e2c0bb" stroke="#e2c0bb"></path><path d="M236 523L213 570L259 542Z" fill="#a68d9d" stroke="#a68d9d"></path><path d="M315 550L336 517L306 485Z" fill="#ffe7d4" stroke="#ffe7d4"></path><path d="M191 390L176 419L198 427Z" fill="#8f7e92" stroke="#8f7e92"></path><path d="M198 427L176 419L192 478Z" fill="#8f7e92" stroke="#8f7e92"></path><path d="M387 463L341 411L335 487Z" fill="#f1d3c7" stroke="#f1d3c7"></path><path d="M335 487L341 411L306 485Z" fill="#767086" stroke="#767086"></path><path d="M191 375L191 390L215 408Z" fill="#d0aeb1" stroke="#d0aeb1"></path><path d="M215 408L191 390L198 427Z" fill="#d0aeb1" stroke="#d0aeb1"></path><path d="M259 542L315 550L306 485Z" fill="#a68d9d" stroke="#a68d9d"></path><path d="M168 493L213 570L236 523Z" fill="#465569" stroke="#465569"></path><path d="M259 542L244 585L315 550Z" fill="#e2c0bb" stroke="#e2c0bb"></path><path d="M236 344L191 375L215 408Z" fill="#ffe7d4" stroke="#ffe7d4"></path><path d="M191 390L114 387L176 419Z" fill="#f1d3c7" stroke="#f1d3c7"></path><path d="M254 346L215 408L299 401Z" fill="#e2c0bb" stroke="#e2c0bb"></path><path d="M386 519L365 501L336 517Z" fill="#ffe7d4" stroke="#ffe7d4"></path><path d="M336 517L365 501L335 487Z" fill="#2f4858" stroke="#2f4858"></path><path d="M341 411L317 370L299 401Z" fill="#a68d9d" stroke="#a68d9d"></path><path d="M213 570L244 585L259 542Z" fill="#465569" stroke="#465569"></path><path d="M213 570L241 586L244 585Z" fill="#e2c0bb" stroke="#e2c0bb"></path><path d="M317 370L254 346L299 401Z" fill="#465569" stroke="#465569"></path><path d="M254 346L236 344L215 408Z" fill="#767086" stroke="#767086"></path><path d="M120 512L142 524L168 493Z" fill="#ffe7d4" stroke="#ffe7d4"></path><path d="M168 493L142 524L213 570Z" fill="#8f7e92" stroke="#8f7e92"></path><path d="M255 299L245 338L254 346Z" fill="#2f4858" stroke="#2f4858"></path><path d="M254 346L245 338L236 344Z" fill="#bc9da7" stroke="#bc9da7"></path><path d="M365 501L387 463L335 487Z" fill="#465569" stroke="#465569"></path><path d="M379 344L353 325L317 370Z" fill="#5e6278" stroke="#5e6278"></path><path d="M213 570L234 596L241 586Z" fill="#767086" stroke="#767086"></path><path d="M241 586L234 596L244 585Z" fill="#bc9da7" stroke="#bc9da7"></path><path d="M279 639L338 613L315 550Z" fill="#2f4858" stroke="#2f4858"></path><path d="M218 640L234 596L213 570Z" fill="#bc9da7" stroke="#bc9da7"></path><path d="M387 463L382 414L341 411Z" fill="#2f4858" stroke="#2f4858"></path><path d="M402 553L336 517L315 550Z" fill="#bc9da7" stroke="#bc9da7"></path><path d="M402 553L386 519L336 517Z" fill="#5e6278" stroke="#5e6278"></path><path d="M365 501L386 519L387 463Z" fill="#767086" stroke="#767086"></path><path d="M114 387L120 429L176 419Z" fill="#d0aeb1" stroke="#d0aeb1"></path><path d="M176 419L120 429L168 493Z" fill="#ffe7d4" stroke="#ffe7d4"></path><path d="M99 452L120 512L168 493Z" fill="#8f7e92" stroke="#8f7e92"></path><path d="M142 524L115 592L213 570Z" fill="#5e6278" stroke="#5e6278"></path><path d="M387 463L395 408L382 414Z" fill="#e2c0bb" stroke="#e2c0bb"></path><path d="M379 344L317 370L341 411Z" fill="#5e6278" stroke="#5e6278"></path><path d="M427 418L395 408L387 463Z" fill="#2f4858" stroke="#2f4858"></path><path d="M120 429L99 452L168 493Z" fill="#a68d9d" stroke="#a68d9d"></path><path d="M99 452L102 510L120 512Z" fill="#767086" stroke="#767086"></path><path d="M120 512L104 544L142 524Z" fill="#f1d3c7" stroke="#f1d3c7"></path><path d="M160 329L114 387L191 375Z" fill="#e2c0bb" stroke="#e2c0bb"></path><path d="M191 375L114 387L191 390Z" fill="#bc9da7" stroke="#bc9da7"></path><path d="M120 429L95 435L99 452Z" fill="#465569" stroke="#465569"></path><path d="M160 329L191 375L236 344Z" fill="#8f7e92" stroke="#8f7e92"></path><path d="M114 387L95 435L120 429Z" fill="#d0aeb1" stroke="#d0aeb1"></path><path d="M64 451L72 519L102 510Z" fill="#2f4858" stroke="#2f4858"></path><path d="M279 639L315 550L244 585Z" fill="#bc9da7" stroke="#bc9da7"></path><path d="M288 285L255 299L254 346Z" fill="#ffe7d4" stroke="#ffe7d4"></path><path d="M245 338L209 293L236 344Z" fill="#d0aeb1" stroke="#d0aeb1"></path><path d="M288 285L254 346L317 370Z" fill="#e2c0bb" stroke="#e2c0bb"></path><path d="M209 293L160 329L236 344Z" fill="#ffe7d4" stroke="#ffe7d4"></path><path d="M384 595L402 553L315 550Z" fill="#f1d3c7" stroke="#f1d3c7"></path><path d="M450 454L427 418L387 463Z" fill="#5e6278" stroke="#5e6278"></path><path d="M72 519L104 544L102 510Z" fill="#a68d9d" stroke="#a68d9d"></path><path d="M102 510L104 544L120 512Z" fill="#e2c0bb" stroke="#e2c0bb"></path><path d="M379 344L341 411L395 358Z" fill="#767086" stroke="#767086"></path><path d="M395 358L341 411L382 414Z" fill="#f1d3c7" stroke="#f1d3c7"></path><path d="M218 640L263 640L234 596Z" fill="#bc9da7" stroke="#bc9da7"></path><path d="M234 596L263 640L244 585Z" fill="#465569" stroke="#465569"></path><path d="M263 640L279 639L244 585Z" fill="#5e6278" stroke="#5e6278"></path><path d="M417 380L395 358L395 408Z" fill="#e2c0bb" stroke="#e2c0bb"></path><path d="M395 408L395 358L382 414Z" fill="#465569" stroke="#465569"></path><path d="M450 454L387 463L450 514Z" fill="#5e6278" stroke="#5e6278"></path><path d="M333 641L373 601L338 613Z" fill="#767086" stroke="#767086"></path><path d="M338 613L373 601L315 550Z" fill="#e2c0bb" stroke="#e2c0bb"></path><path d="M167 644L218 640L213 570Z" fill="#d0aeb1" stroke="#d0aeb1"></path><path d="M255 299L209 293L245 338Z" fill="#d0aeb1" stroke="#d0aeb1"></path><path d="M373 601L384 595L315 550Z" fill="#767086" stroke="#767086"></path><path d="M427 418L417 380L395 408Z" fill="#bc9da7" stroke="#bc9da7"></path><path d="M353 325L288 285L317 370Z" fill="#f1d3c7" stroke="#f1d3c7"></path><path d="M255 299L251 242L209 293Z" fill="#767086" stroke="#767086"></path><path d="M160 329L95 369L114 387Z" fill="#2f4858" stroke="#2f4858"></path><path d="M114 387L71 407L95 435Z" fill="#465569" stroke="#465569"></path><path d="M125 277L95 369L160 329Z" fill="#e2c0bb" stroke="#e2c0bb"></path><path d="M104 544L115 592L142 524Z" fill="#ffe7d4" stroke="#ffe7d4"></path><path d="M279 639L333 641L338 613Z" fill="#767086" stroke="#767086"></path><path d="M373 601L403 615L384 595Z" fill="#bc9da7" stroke="#bc9da7"></path><path d="M334 645L333 641L279 639Z" fill="#f1d3c7" stroke="#f1d3c7"></path><path d="M334 645L279 639L277 695Z" fill="#f1d3c7" stroke="#f1d3c7"></path><path d="M64 451L99 452L95 435Z" fill="#8f7e92" stroke="#8f7e92"></path><path d="M64 451L102 510L99 452Z" fill="#bc9da7" stroke="#bc9da7"></path><path d="M104 544L77 560L115 592Z" fill="#2f4858" stroke="#2f4858"></path><path d="M204 221L179 291L209 293Z" fill="#2f4858" stroke="#2f4858"></path><path d="M209 293L179 291L160 329Z" fill="#2f4858" stroke="#2f4858"></path><path d="M71 407L64 451L95 435Z" fill="#a68d9d" stroke="#a68d9d"></path><path d="M450 514L387 463L386 519Z" fill="#bc9da7" stroke="#bc9da7"></path><path d="M427 418L450 426L417 380Z" fill="#767086" stroke="#767086"></path><path d="M450 514L386 519L450 534Z" fill="#d0aeb1" stroke="#d0aeb1"></path><path d="M333 641L334 645L373 601Z" fill="#ffe7d4" stroke="#ffe7d4"></path><path d="M277 695L279 639L263 640Z" fill="#5e6278" stroke="#5e6278"></path><path d="M95 369L71 407L114 387Z" fill="#8f7e92" stroke="#8f7e92"></path><path d="M450 454L450 426L427 418Z" fill="#d0aeb1" stroke="#d0aeb1"></path><path d="M115 592L155 637L213 570Z" fill="#e2c0bb" stroke="#e2c0bb"></path><path d="M155 637L167 644L213 570Z" fill="#8f7e92" stroke="#8f7e92"></path><path d="M264 707L277 695L263 640Z" fill="#5e6278" stroke="#5e6278"></path><path d="M450 534L386 519L402 553Z" fill="#e2c0bb" stroke="#e2c0bb"></path><path d="M72 519L77 560L104 544Z" fill="#d0aeb1" stroke="#d0aeb1"></path><path d="M115 592L122 640L155 637Z" fill="#465569" stroke="#465569"></path><path d="M403 615L402 553L384 595Z" fill="#465569" stroke="#465569"></path><path d="M450 591L450 534L402 553Z" fill="#bc9da7" stroke="#bc9da7"></path><path d="M383 677L403 615L373 601Z" fill="#bc9da7" stroke="#bc9da7"></path><path d="M450 426L427 345L417 380Z" fill="#f1d3c7" stroke="#f1d3c7"></path><path d="M417 380L427 345L395 358Z" fill="#8f7e92" stroke="#8f7e92"></path><path d="M395 358L427 345L379 344Z" fill="#bc9da7" stroke="#bc9da7"></path><path d="M379 344L410 258L353 325Z" fill="#a68d9d" stroke="#a68d9d"></path><path d="M353 325L335 256L288 285Z" fill="#ffe7d4" stroke="#ffe7d4"></path><path d="M14 520L56 533L72 519Z" fill="#d0aeb1" stroke="#d0aeb1"></path><path d="M72 519L56 533L77 560Z" fill="#5e6278" stroke="#5e6278"></path><path d="M50 629L122 640L115 592Z" fill="#2f4858" stroke="#2f4858"></path><path d="M155 637L124 643L167 644Z" fill="#f1d3c7" stroke="#f1d3c7"></path><path d="M50 629L115 592L77 560Z" fill="#ffe7d4" stroke="#ffe7d4"></path><path d="M122 640L124 643L155 637Z" fill="#767086" stroke="#767086"></path><path d="M353 236L335 256L410 258Z" fill="#f1d3c7" stroke="#f1d3c7"></path><path d="M288 285L251 242L255 299Z" fill="#bc9da7" stroke="#bc9da7"></path><path d="M309 215L251 242L288 285Z" fill="#5e6278" stroke="#5e6278"></path><path d="M264 707L218 640L167 644Z" fill="#5e6278" stroke="#5e6278"></path><path d="M264 707L263 640L218 640Z" fill="#5e6278" stroke="#5e6278"></path><path d="M334 645L383 677L373 601Z" fill="#465569" stroke="#465569"></path><path d="M403 615L450 591L402 553Z" fill="#465569" stroke="#465569"></path><path d="M450 659L450 591L403 615Z" fill="#8f7e92" stroke="#8f7e92"></path><path d="M153 236L125 277L179 291Z" fill="#8f7e92" stroke="#8f7e92"></path><path d="M179 291L125 277L160 329Z" fill="#bc9da7" stroke="#bc9da7"></path><path d="M95 369L29 386L71 407Z" fill="#8f7e92" stroke="#8f7e92"></path><path d="M0 536L43 576L56 533Z" fill="#d0aeb1" stroke="#d0aeb1"></path><path d="M56 533L43 576L77 560Z" fill="#8f7e92" stroke="#8f7e92"></path><path d="M122 640L68 669L124 643Z" fill="#ffe7d4" stroke="#ffe7d4"></path><path d="M14 520L72 519L0 483Z" fill="#767086" stroke="#767086"></path><path d="M259 730L264 707L167 644Z" fill="#ffe7d4" stroke="#ffe7d4"></path><path d="M380 684L383 677L334 645Z" fill="#767086" stroke="#767086"></path><path d="M450 426L450 322L427 345Z" fill="#f1d3c7" stroke="#f1d3c7"></path><path d="M427 345L450 306L379 344Z" fill="#e2c0bb" stroke="#e2c0bb"></path><path d="M55 320L29 386L95 369Z" fill="#e2c0bb" stroke="#e2c0bb"></path><path d="M71 407L0 437L64 451Z" fill="#5e6278" stroke="#5e6278"></path><path d="M450 322L450 316L427 345Z" fill="#ffe7d4" stroke="#ffe7d4"></path><path d="M380 684L334 645L344 709Z" fill="#e2c0bb" stroke="#e2c0bb"></path><path d="M0 483L72 519L64 451Z" fill="#f1d3c7" stroke="#f1d3c7"></path><path d="M125 277L55 320L95 369Z" fill="#e2c0bb" stroke="#e2c0bb"></path><path d="M344 709L334 645L277 695Z" fill="#e2c0bb" stroke="#e2c0bb"></path><path d="M383 677L450 659L403 615Z" fill="#767086" stroke="#767086"></path><path d="M410 258L335 256L353 325Z" fill="#8f7e92" stroke="#8f7e92"></path><path d="M335 256L309 215L288 285Z" fill="#8f7e92" stroke="#8f7e92"></path><path d="M450 316L450 306L427 345Z" fill="#bc9da7" stroke="#bc9da7"></path><path d="M204 212L204 221L218 207Z" fill="#e2c0bb" stroke="#e2c0bb"></path><path d="M251 242L204 221L209 293Z" fill="#ffe7d4" stroke="#ffe7d4"></path><path d="M125 277L81 274L55 320Z" fill="#767086" stroke="#767086"></path><path d="M204 221L153 236L179 291Z" fill="#bc9da7" stroke="#bc9da7"></path><path d="M153 236L116 256L125 277Z" fill="#bc9da7" stroke="#bc9da7"></path><path d="M0 437L0 470L64 451Z" fill="#767086" stroke="#767086"></path><path d="M353 236L309 215L335 256Z" fill="#767086" stroke="#767086"></path><path d="M0 470L0 483L64 451Z" fill="#e2c0bb" stroke="#e2c0bb"></path><path d="M329 731L344 709L277 695Z" fill="#a68d9d" stroke="#a68d9d"></path><path d="M0 348L0 437L29 386Z" fill="#bc9da7" stroke="#bc9da7"></path><path d="M29 386L0 437L71 407Z" fill="#8f7e92" stroke="#8f7e92"></path><path d="M450 306L410 258L379 344Z" fill="#ffe7d4" stroke="#ffe7d4"></path><path d="M324 189L278 197L309 215Z" fill="#f1d3c7" stroke="#f1d3c7"></path><path d="M218 207L204 221L251 242Z" fill="#ffe7d4" stroke="#ffe7d4"></path><path d="M204 221L157 212L153 236Z" fill="#f1d3c7" stroke="#f1d3c7"></path><path d="M76 201L81 274L116 256Z" fill="#ffe7d4" stroke="#ffe7d4"></path><path d="M116 256L81 274L125 277Z" fill="#bc9da7" stroke="#bc9da7"></path><path d="M278 197L218 207L251 242Z" fill="#bc9da7" stroke="#bc9da7"></path><path d="M0 609L50 629L43 576Z" fill="#e2c0bb" stroke="#e2c0bb"></path><path d="M43 576L50 629L77 560Z" fill="#5e6278" stroke="#5e6278"></path><path d="M181 771L259 730L167 644Z" fill="#f1d3c7" stroke="#f1d3c7"></path><path d="M0 536L56 533L14 520Z" fill="#e2c0bb" stroke="#e2c0bb"></path><path d="M122 701L167 644L124 643Z" fill="#ffe7d4" stroke="#ffe7d4"></path><path d="M264 707L259 730L277 695Z" fill="#ffe7d4" stroke="#ffe7d4"></path><path d="M0 483L0 536L14 520Z" fill="#f1d3c7" stroke="#f1d3c7"></path><path d="M81 274L51 293L55 320Z" fill="#767086" stroke="#767086"></path><path d="M55 320L0 348L29 386Z" fill="#5e6278" stroke="#5e6278"></path><path d="M68 669L122 701L124 643Z" fill="#e2c0bb" stroke="#e2c0bb"></path><path d="M324 189L309 215L345 194Z" fill="#ffe7d4" stroke="#ffe7d4"></path><path d="M309 215L278 197L251 242Z" fill="#bc9da7" stroke="#bc9da7"></path><path d="M450 666L450 659L383 677Z" fill="#bc9da7" stroke="#bc9da7"></path><path d="M450 666L383 677L418 711Z" fill="#8f7e92" stroke="#8f7e92"></path><path d="M153 236L118 218L116 256Z" fill="#a68d9d" stroke="#a68d9d"></path><path d="M0 238L0 303L51 293Z" fill="#d0aeb1" stroke="#d0aeb1"></path><path d="M204 212L157 212L204 221Z" fill="#ffe7d4" stroke="#ffe7d4"></path><path d="M198 125L157 212L204 212Z" fill="#bc9da7" stroke="#bc9da7"></path><path d="M231 169L204 212L218 207Z" fill="#ffe7d4" stroke="#ffe7d4"></path><path d="M259 730L329 731L277 695Z" fill="#d0aeb1" stroke="#d0aeb1"></path><path d="M411 729L418 711L380 684Z" fill="#a68d9d" stroke="#a68d9d"></path><path d="M50 629L68 669L122 640Z" fill="#f1d3c7" stroke="#f1d3c7"></path><path d="M52 681L68 669L43 677Z" fill="#ffe7d4" stroke="#ffe7d4"></path><path d="M418 711L383 677L380 684Z" fill="#e2c0bb" stroke="#e2c0bb"></path><path d="M0 303L27 310L51 293Z" fill="#8f7e92" stroke="#8f7e92"></path><path d="M51 293L27 310L55 320Z" fill="#a68d9d" stroke="#a68d9d"></path><path d="M27 310L0 348L55 320Z" fill="#767086" stroke="#767086"></path><path d="M0 536L0 589L43 576Z" fill="#767086" stroke="#767086"></path><path d="M157 212L118 218L153 236Z" fill="#a68d9d" stroke="#a68d9d"></path><path d="M345 194L309 215L353 236Z" fill="#5e6278" stroke="#5e6278"></path><path d="M278 197L231 169L218 207Z" fill="#5e6278" stroke="#5e6278"></path><path d="M413 185L345 194L353 236Z" fill="#2f4858" stroke="#2f4858"></path><path d="M411 729L380 684L344 709Z" fill="#f1d3c7" stroke="#f1d3c7"></path><path d="M0 589L0 609L43 576Z" fill="#465569" stroke="#465569"></path><path d="M450 306L450 244L410 258Z" fill="#465569" stroke="#465569"></path><path d="M410 258L413 185L353 236Z" fill="#e2c0bb" stroke="#e2c0bb"></path><path d="M259 730L285 779L329 731Z" fill="#a68d9d" stroke="#a68d9d"></path><path d="M396 751L411 729L344 709Z" fill="#465569" stroke="#465569"></path><path d="M242 771L258 763L259 730Z" fill="#f1d3c7" stroke="#f1d3c7"></path><path d="M68 669L115 728L122 701Z" fill="#e2c0bb" stroke="#e2c0bb"></path><path d="M181 771L242 771L259 730Z" fill="#2f4858" stroke="#2f4858"></path><path d="M43 677L68 669L50 629Z" fill="#2f4858" stroke="#2f4858"></path><path d="M52 681L115 728L68 669Z" fill="#bc9da7" stroke="#bc9da7"></path><path d="M258 100L231 169L297 102Z" fill="#a68d9d" stroke="#a68d9d"></path><path d="M157 212L106 191L118 218Z" fill="#ffe7d4" stroke="#ffe7d4"></path><path d="M0 609L43 677L50 629Z" fill="#ffe7d4" stroke="#ffe7d4"></path><path d="M111 755L120 748L115 728Z" fill="#767086" stroke="#767086"></path><path d="M396 751L344 709L329 731Z" fill="#ffe7d4" stroke="#ffe7d4"></path><path d="M418 711L450 731L450 666Z" fill="#465569" stroke="#465569"></path><path d="M181 771L167 644L122 701Z" fill="#d0aeb1" stroke="#d0aeb1"></path><path d="M258 763L285 779L259 730Z" fill="#767086" stroke="#767086"></path><path d="M40 229L51 293L81 274Z" fill="#f1d3c7" stroke="#f1d3c7"></path><path d="M27 310L0 303L0 348Z" fill="#d0aeb1" stroke="#d0aeb1"></path><path d="M111 755L115 728L79 746Z" fill="#ffe7d4" stroke="#ffe7d4"></path><path d="M115 728L142 758L122 701Z" fill="#f1d3c7" stroke="#f1d3c7"></path><path d="M120 748L142 758L115 728Z" fill="#d0aeb1" stroke="#d0aeb1"></path><path d="M272 798L258 763L242 771Z" fill="#8f7e92" stroke="#8f7e92"></path><path d="M272 798L285 779L258 763Z" fill="#5e6278" stroke="#5e6278"></path><path d="M142 758L181 771L122 701Z" fill="#f1d3c7" stroke="#f1d3c7"></path><path d="M120 167L106 191L157 212Z" fill="#bc9da7" stroke="#bc9da7"></path><path d="M118 218L76 201L116 256Z" fill="#bc9da7" stroke="#bc9da7"></path><path d="M344 785L396 751L329 731Z" fill="#2f4858" stroke="#2f4858"></path><path d="M450 244L450 215L410 258Z" fill="#5e6278" stroke="#5e6278"></path><path d="M345 194L355 128L324 189Z" fill="#2f4858" stroke="#2f4858"></path><path d="M203 116L198 125L231 169Z" fill="#bc9da7" stroke="#bc9da7"></path><path d="M106 191L76 201L118 218Z" fill="#767086" stroke="#767086"></path><path d="M76 201L40 229L81 274Z" fill="#a68d9d" stroke="#a68d9d"></path><path d="M450 215L413 185L410 258Z" fill="#d0aeb1" stroke="#d0aeb1"></path><path d="M120 748L111 755L142 758Z" fill="#767086" stroke="#767086"></path><path d="M146 797L195 799L181 771Z" fill="#f1d3c7" stroke="#f1d3c7"></path><path d="M79 746L115 728L52 681Z" fill="#e2c0bb" stroke="#e2c0bb"></path><path d="M450 779L450 731L411 729Z" fill="#e2c0bb" stroke="#e2c0bb"></path><path d="M411 729L450 731L418 711Z" fill="#2f4858" stroke="#2f4858"></path><path d="M106 191L79 168L76 201Z" fill="#a68d9d" stroke="#a68d9d"></path><path d="M198 125L120 167L157 212Z" fill="#ffe7d4" stroke="#ffe7d4"></path><path d="M332 844L344 785L322 848Z" fill="#5e6278" stroke="#5e6278"></path><path d="M285 779L344 785L329 731Z" fill="#5e6278" stroke="#5e6278"></path><path d="M396 751L450 779L411 729Z" fill="#767086" stroke="#767086"></path><path d="M0 700L79 746L52 681Z" fill="#ffe7d4" stroke="#ffe7d4"></path><path d="M0 700L52 681L43 677Z" fill="#bc9da7" stroke="#bc9da7"></path><path d="M200 830L272 798L242 771Z" fill="#f1d3c7" stroke="#f1d3c7"></path><path d="M195 799L242 771L181 771Z" fill="#5e6278" stroke="#5e6278"></path><path d="M146 797L142 758L111 755Z" fill="#a68d9d" stroke="#a68d9d"></path><path d="M146 797L181 771L142 758Z" fill="#2f4858" stroke="#2f4858"></path><path d="M0 609L0 692L43 677Z" fill="#d0aeb1" stroke="#d0aeb1"></path><path d="M40 229L0 238L51 293Z" fill="#767086" stroke="#767086"></path><path d="M0 218L0 238L40 229Z" fill="#f1d3c7" stroke="#f1d3c7"></path><path d="M0 218L40 229L0 205Z" fill="#2f4858" stroke="#2f4858"></path><path d="M450 215L436 170L413 185Z" fill="#f1d3c7" stroke="#f1d3c7"></path><path d="M392 132L355 128L345 194Z" fill="#5e6278" stroke="#5e6278"></path><path d="M231 169L198 125L204 212Z" fill="#d0aeb1" stroke="#d0aeb1"></path><path d="M231 169L278 197L297 102Z" fill="#a68d9d" stroke="#a68d9d"></path><path d="M0 692L0 700L43 677Z" fill="#465569" stroke="#465569"></path><path d="M109 130L79 168L120 167Z" fill="#2f4858" stroke="#2f4858"></path><path d="M120 167L79 168L106 191Z" fill="#d0aeb1" stroke="#d0aeb1"></path><path d="M172 822L146 797L131 839Z" fill="#2f4858" stroke="#2f4858"></path><path d="M131 839L146 797L71 824Z" fill="#e2c0bb" stroke="#e2c0bb"></path><path d="M392 132L345 194L413 185Z" fill="#e2c0bb" stroke="#e2c0bb"></path><path d="M258 100L203 116L231 169Z" fill="#a68d9d" stroke="#a68d9d"></path><path d="M146 108L109 130L120 167Z" fill="#f1d3c7" stroke="#f1d3c7"></path><path d="M0 205L40 229L10 161Z" fill="#8f7e92" stroke="#8f7e92"></path><path d="M436 170L392 132L413 185Z" fill="#a68d9d" stroke="#a68d9d"></path><path d="M450 215L450 159L436 170Z" fill="#2f4858" stroke="#2f4858"></path><path d="M436 170L450 159L392 132Z" fill="#465569" stroke="#465569"></path><path d="M146 797L172 822L195 799Z" fill="#e2c0bb" stroke="#e2c0bb"></path><path d="M195 799L200 830L242 771Z" fill="#8f7e92" stroke="#8f7e92"></path><path d="M397 818L396 751L344 785Z" fill="#5e6278" stroke="#5e6278"></path><path d="M146 797L111 755L71 824Z" fill="#e2c0bb" stroke="#e2c0bb"></path><path d="M10 161L40 229L76 201Z" fill="#ffe7d4" stroke="#ffe7d4"></path><path d="M297 102L324 189L355 128Z" fill="#5e6278" stroke="#5e6278"></path><path d="M297 102L278 197L324 189Z" fill="#d0aeb1" stroke="#d0aeb1"></path><path d="M289 78L297 102L294 69Z" fill="#ffe7d4" stroke="#ffe7d4"></path><path d="M397 818L344 785L365 834Z" fill="#d0aeb1" stroke="#d0aeb1"></path><path d="M397 818L450 779L396 751Z" fill="#f1d3c7" stroke="#f1d3c7"></path><path d="M172 822L200 830L195 799Z" fill="#bc9da7" stroke="#bc9da7"></path><path d="M146 108L120 167L198 125Z" fill="#d0aeb1" stroke="#d0aeb1"></path><path d="M79 168L10 161L76 201Z" fill="#ffe7d4" stroke="#ffe7d4"></path><path d="M146 108L198 125L203 116Z" fill="#767086" stroke="#767086"></path><path d="M297 102L288 96L258 100Z" fill="#465569" stroke="#465569"></path><path d="M289 78L288 96L297 102Z" fill="#d0aeb1" stroke="#d0aeb1"></path><path d="M219 67L203 116L258 100Z" fill="#465569" stroke="#465569"></path><path d="M213 60L146 108L203 116Z" fill="#f1d3c7" stroke="#f1d3c7"></path><path d="M365 834L344 785L332 844Z" fill="#465569" stroke="#465569"></path><path d="M289 78L267 87L288 96Z" fill="#465569" stroke="#465569"></path><path d="M288 96L267 87L258 100Z" fill="#8f7e92" stroke="#8f7e92"></path><path d="M344 785L285 779L322 848Z" fill="#f1d3c7" stroke="#f1d3c7"></path><path d="M322 848L285 779L272 798Z" fill="#e2c0bb" stroke="#e2c0bb"></path><path d="M257 894L322 848L272 798Z" fill="#8f7e92" stroke="#8f7e92"></path><path d="M404 900L397 818L365 834Z" fill="#2f4858" stroke="#2f4858"></path><path d="M294 69L297 102L350 60Z" fill="#d0aeb1" stroke="#d0aeb1"></path><path d="M267 87L219 67L258 100Z" fill="#d0aeb1" stroke="#d0aeb1"></path><path d="M297 102L355 128L360 77Z" fill="#a68d9d" stroke="#a68d9d"></path><path d="M71 824L111 755L79 746Z" fill="#e2c0bb" stroke="#e2c0bb"></path><path d="M146 900L222 878L200 830Z" fill="#8f7e92" stroke="#8f7e92"></path><path d="M200 830L222 878L272 798Z" fill="#e2c0bb" stroke="#e2c0bb"></path><path d="M59 101L79 168L109 130Z" fill="#2f4858" stroke="#2f4858"></path><path d="M59 101L10 161L79 168Z" fill="#e2c0bb" stroke="#e2c0bb"></path><path d="M0 700L17 783L79 746Z" fill="#a68d9d" stroke="#a68d9d"></path><path d="M450 159L450 119L392 132Z" fill="#5e6278" stroke="#5e6278"></path><path d="M360 77L355 128L392 132Z" fill="#8f7e92" stroke="#8f7e92"></path><path d="M289 78L294 69L267 87Z" fill="#a68d9d" stroke="#a68d9d"></path><path d="M251 19L219 67L267 87Z" fill="#d0aeb1" stroke="#d0aeb1"></path><path d="M101 73L59 101L109 130Z" fill="#f1d3c7" stroke="#f1d3c7"></path><path d="M17 783L71 824L79 746Z" fill="#5e6278" stroke="#5e6278"></path><path d="M365 73L360 77L392 132Z" fill="#767086" stroke="#767086"></path><path d="M450 119L365 73L392 132Z" fill="#2f4858" stroke="#2f4858"></path><path d="M360 77L350 60L297 102Z" fill="#e2c0bb" stroke="#e2c0bb"></path><path d="M251 19L213 60L219 67Z" fill="#767086" stroke="#767086"></path><path d="M219 67L213 60L203 116Z" fill="#2f4858" stroke="#2f4858"></path><path d="M251 19L267 87L294 69Z" fill="#ffe7d4" stroke="#ffe7d4"></path><path d="M0 700L0 789L17 783Z" fill="#2f4858" stroke="#2f4858"></path><path d="M17 783L0 795L71 824Z" fill="#e2c0bb" stroke="#e2c0bb"></path><path d="M257 894L222 878L231 900Z" fill="#2f4858" stroke="#2f4858"></path><path d="M146 900L200 830L172 822Z" fill="#465569" stroke="#465569"></path><path d="M101 73L109 130L146 108Z" fill="#2f4858" stroke="#2f4858"></path><path d="M0 789L0 795L17 783Z" fill="#2f4858" stroke="#2f4858"></path><path d="M376 11L350 60L365 73Z" fill="#465569" stroke="#465569"></path><path d="M365 73L350 60L360 77Z" fill="#bc9da7" stroke="#bc9da7"></path><path d="M213 60L132 65L146 108Z" fill="#e2c0bb" stroke="#e2c0bb"></path><path d="M404 900L450 843L397 818Z" fill="#d0aeb1" stroke="#d0aeb1"></path><path d="M397 818L450 843L450 779Z" fill="#2f4858" stroke="#2f4858"></path><path d="M351 890L365 834L332 844Z" fill="#f1d3c7" stroke="#f1d3c7"></path><path d="M351 890L332 844L322 848Z" fill="#8f7e92" stroke="#8f7e92"></path><path d="M132 65L101 73L146 108Z" fill="#8f7e92" stroke="#8f7e92"></path><path d="M0 106L0 127L59 101Z" fill="#f1d3c7" stroke="#f1d3c7"></path><path d="M59 101L0 127L10 161Z" fill="#d0aeb1" stroke="#d0aeb1"></path><path d="M10 161L0 127L0 205Z" fill="#f1d3c7" stroke="#f1d3c7"></path><path d="M253 900L257 894L231 900Z" fill="#d0aeb1" stroke="#d0aeb1"></path><path d="M222 878L257 894L272 798Z" fill="#2f4858" stroke="#2f4858"></path><path d="M153 0L122 60L132 65Z" fill="#767086" stroke="#767086"></path><path d="M132 65L122 60L101 73Z" fill="#d0aeb1" stroke="#d0aeb1"></path><path d="M42 48L0 106L59 101Z" fill="#f1d3c7" stroke="#f1d3c7"></path><path d="M117 877L131 839L71 824Z" fill="#a68d9d" stroke="#a68d9d"></path><path d="M146 900L172 822L131 839Z" fill="#767086" stroke="#767086"></path><path d="M341 900L351 890L322 848Z" fill="#767086" stroke="#767086"></path><path d="M59 900L117 877L71 824Z" fill="#a68d9d" stroke="#a68d9d"></path><path d="M341 900L322 848L257 894Z" fill="#e2c0bb" stroke="#e2c0bb"></path><path d="M146 900L231 900L222 878Z" fill="#bc9da7" stroke="#bc9da7"></path><path d="M117 877L125 884L131 839Z" fill="#2f4858" stroke="#2f4858"></path><path d="M59 900L125 884L117 877Z" fill="#d0aeb1" stroke="#d0aeb1"></path><path d="M253 900L341 900L257 894Z" fill="#465569" stroke="#465569"></path><path d="M351 890L385 900L365 834Z" fill="#5e6278" stroke="#5e6278"></path><path d="M42 48L59 101L101 73Z" fill="#8f7e92" stroke="#8f7e92"></path><path d="M145 900L146 900L125 884Z" fill="#a68d9d" stroke="#a68d9d"></path><path d="M125 884L146 900L131 839Z" fill="#465569" stroke="#465569"></path><path d="M59 900L145 900L125 884Z" fill="#e2c0bb" stroke="#e2c0bb"></path><path d="M213 60L153 0L132 65Z" fill="#f1d3c7" stroke="#f1d3c7"></path><path d="M263 0L251 19L287 0Z" fill="#2f4858" stroke="#2f4858"></path><path d="M341 900L385 900L351 890Z" fill="#ffe7d4" stroke="#ffe7d4"></path><path d="M385 900L404 900L365 834Z" fill="#767086" stroke="#767086"></path><path d="M0 795L34 871L71 824Z" fill="#d0aeb1" stroke="#d0aeb1"></path><path d="M404 900L450 891L450 843Z" fill="#bc9da7" stroke="#bc9da7"></path><path d="M287 0L294 69L298 0Z" fill="#ffe7d4" stroke="#ffe7d4"></path><path d="M287 0L251 19L294 69Z" fill="#2f4858" stroke="#2f4858"></path><path d="M251 19L153 0L213 60Z" fill="#465569" stroke="#465569"></path><path d="M96 12L42 48L101 73Z" fill="#e2c0bb" stroke="#e2c0bb"></path><path d="M298 0L294 69L350 60Z" fill="#2f4858" stroke="#2f4858"></path><path d="M369 0L298 0L350 60Z" fill="#a68d9d" stroke="#a68d9d"></path><path d="M450 119L450 39L365 73Z" fill="#465569" stroke="#465569"></path><path d="M96 12L101 73L122 60Z" fill="#a68d9d" stroke="#a68d9d"></path><path d="M450 39L376 11L365 73Z" fill="#5e6278" stroke="#5e6278"></path><path d="M404 900L450 900L450 891Z" fill="#d0aeb1" stroke="#d0aeb1"></path><path d="M34 871L59 900L71 824Z" fill="#767086" stroke="#767086"></path><path d="M263 0L153 0L251 19Z" fill="#767086" stroke="#767086"></path><path d="M439 0L369 0L376 11Z" fill="#767086" stroke="#767086"></path><path d="M376 11L369 0L350 60Z" fill="#8f7e92" stroke="#8f7e92"></path><path d="M130 0L96 12L122 60Z" fill="#2f4858" stroke="#2f4858"></path><path d="M153 0L130 0L122 60Z" fill="#2f4858" stroke="#2f4858"></path><path d="M0 795L0 886L34 871Z" fill="#f1d3c7" stroke="#f1d3c7"></path><path d="M34 871L20 900L59 900Z" fill="#767086" stroke="#767086"></path><path d="M130 0L100 0L96 12Z" fill="#d0aeb1" stroke="#d0aeb1"></path><path d="M96 12L48 0L42 48Z" fill="#767086" stroke="#767086"></path><path d="M0 886L20 900L34 871Z" fill="#8f7e92" stroke="#8f7e92"></path><path d="M450 39L439 0L376 11Z" fill="#767086" stroke="#767086"></path><path d="M0 886L0 900L20 900Z" fill="#2f4858" stroke="#2f4858"></path><path d="M450 39L450 0L439 0Z" fill="#5e6278" stroke="#5e6278"></path><path d="M100 0L48 0L96 12Z" fill="#d0aeb1" stroke="#d0aeb1"></path><path d="M42 48L0 5L0 106Z" fill="#5e6278" stroke="#5e6278"></path><path d="M48 0L0 5L42 48Z" fill="#d0aeb1" stroke="#d0aeb1"></path><path d="M48 0L0 0L0 5Z" fill="#d0aeb1" stroke="#d0aeb1"></path></g></svg>