<svg id="visual" viewBox="0 0 540 960" width="540" height="960" xmlns="http://www.w3.org/2000/svg" xmlns:xlink="http://www.w3.org/1999/xlink" version="1.1"><path d="M0 193L49 126L98 155L147 164L196 78L245 183L295 193L344 193L393 68L442 183L491 107L540 135L540 0L491 0L442 0L393 0L344 0L295 0L245 0L196 0L147 0L98 0L49 0L0 0Z" fill="#ffe7d4"></path><path d="M0 481L49 366L98 289L147 510L196 404L245 327L295 539L344 347L393 366L442 385L491 375L540 443L540 133L491 105L442 181L393 66L344 191L295 191L245 181L196 76L147 162L98 153L49 124L0 191Z" fill="#d9b7b6"></path><path d="M0 740L49 702L98 702L147 740L196 702L245 731L295 673L344 654L393 654L442 673L491 663L540 692L540 441L491 373L442 383L393 364L344 345L295 537L245 325L196 402L147 508L98 287L49 364L0 479Z" fill="#a68d9d"></path><path d="M0 884L49 798L98 817L147 817L196 827L245 836L295 798L344 750L393 817L442 836L491 721L540 846L540 690L491 661L442 671L393 652L344 652L295 671L245 729L196 700L147 738L98 700L49 700L0 738Z" fill="#6a697f"></path><path d="M0 961L49 961L98 961L147 961L196 961L245 961L295 961L344 961L393 961L442 961L491 961L540 961L540 844L491 719L442 834L393 815L344 748L295 796L245 834L196 825L147 815L98 815L49 796L0 882Z" fill="#2f4858"></path></svg>